<?xml version="1.0" encoding="UTF-8"?>
<svg id="Capa_2" data-name="Capa 2" xmlns="http://www.w3.org/2000/svg" viewBox="0 0 31.46 23.59">
  <defs>
    <style>
      .cls-1 {
        fill: #e62044;
      }
    </style>
  </defs>
  <g id="Capa_1-2" data-name="Capa 1">
    <path class="cls-1" d="M31.04,8.8c-.42-.59-1.1-.93-1.83-.93h-2.25v-2.25c0-1.24-1.01-2.25-2.25-2.25h-9.74L11.09.45c-.39-.29-.86-.45-1.35-.45H2.25C1.01,0,0,1.01,0,2.25v20.22h0c0,.62.5,1.12,1.12,1.12h25.15c.48,0,.91-.31,1.07-.77l4-12c.23-.69.11-1.44-.31-2.03ZM9.74,2.25l4.19,3.15c.19.15.43.22.67.22h10.11v2.25H6.43c-.97,0-1.83.62-2.13,1.54l-2.05,6.15V2.25h7.49ZM25.47,21.35H2.68l3.75-11.23h22.78l-3.74,11.23Z"/>
  </g>
</svg>