<?xml version="1.0" encoding="UTF-8"?>
<svg id="Capa_2" data-name="Capa 2" xmlns="http://www.w3.org/2000/svg" xmlns:xlink="http://www.w3.org/1999/xlink" viewBox="0 0 105.18 105.18">
  <defs>
    <style>
      .cls-1 {
        fill: url(#Degradado_sin_nombre_99-2);
      }

      .cls-2 {
        fill: url(#Degradado_sin_nombre_99-4);
      }

      .cls-3 {
        fill: url(#Degradado_sin_nombre_99-3);
      }

      .cls-4 {
        fill: url(#Degradado_sin_nombre_99-5);
      }

      .cls-5 {
        fill: #fff;
      }

      .cls-6 {
        fill: url(#Degradado_sin_nombre_99);
      }
    </style>
    <linearGradient id="Degradado_sin_nombre_99" data-name="Degradado sin nombre 99" x1="52.59" y1="105.18" x2="52.59" y2="0" gradientUnits="userSpaceOnUse">
      <stop offset="0" stop-color="#0072b2"/>
      <stop offset="1" stop-color="#0ba2dd"/>
    </linearGradient>
    <linearGradient id="Degradado_sin_nombre_99-2" data-name="Degradado sin nombre 99" x1="10.37" y1="52.59" x2="94.81" y2="52.59" xlink:href="#Degradado_sin_nombre_99"/>
    <linearGradient id="Degradado_sin_nombre_99-3" data-name="Degradado sin nombre 99" x1="23.8" y1="52.59" x2="81.38" y2="52.59" xlink:href="#Degradado_sin_nombre_99"/>
    <linearGradient id="Degradado_sin_nombre_99-4" data-name="Degradado sin nombre 99" x1="34.54" y1="52.59" x2="70.64" y2="52.59" xlink:href="#Degradado_sin_nombre_99"/>
    <linearGradient id="Degradado_sin_nombre_99-5" data-name="Degradado sin nombre 99" x1="44.04" y1="52.59" x2="61.14" y2="52.59" xlink:href="#Degradado_sin_nombre_99"/>
  </defs>
  <g id="Capa_1-2" data-name="Capa 1">
    <g>
      <g>
        <circle class="cls-6" cx="52.59" cy="52.59" r="52.59"/>
        <circle class="cls-1" cx="52.59" cy="52.59" r="42.22"/>
        <circle class="cls-3" cx="52.59" cy="52.59" r="28.79"/>
        <circle class="cls-2" cx="52.59" cy="52.59" r="18.05"/>
        <circle class="cls-4" cx="52.59" cy="52.59" r="8.55"/>
      </g>
      <path class="cls-5" d="M75.7,58.31c-1-3.96-1.4-6.81-2.67-10.67-1.28-3.89-3.88-7.51-8.38-7.55-3.09-.03-5.5,1.27-7.38,3.3-1.44-2.99-3.95-4.99-8.23-4.8-3.86.17-6.76,2.17-8.93,5.04-.31-2.43-.92-4.81-2.5-6.39-2.73-2.74-7.14-1.4-9.35.26s-3.12,2.67-4.23,6.37c-1.22,4.08,5.19.18,7.03-.98.31-.19,1.6-1.04,1.95-.8.59.4.61,3.76.67,4.3.67,5.73.92,11.48.83,17.24-.02,4.25,6.53,4.25,6.6,0,.02-3.66.57-7.21,1.76-10.68.94-2.72,2.44-6.68,5.49-7.61,3.49-1.06,4.22,3.56,4.13,8.27-.21,3.8-.58,6.74-.89,9.28-.42,3.49,5.95,4.73,6.48.88.31-2.21.97-10.65,1.16-11.49.92-4.18,3-6.77,5.89-5.44,1.93.89,2.5,5.9,2.92,7.63.91,3.76,1.36,6.13,2.34,9.75.38,1.4,1.74,2.42,3.18,2.42,3.29,0,4.19-2.74,5.52-5.83,1.62-3.77-1.6-6.01-3.4-2.52Z"/>
    </g>
  </g>
</svg>