<?xml version="1.0" encoding="UTF-8"?>
<svg id="Capa_2" data-name="Capa 2" xmlns="http://www.w3.org/2000/svg" viewBox="0 0 224.39 39">
  <defs>
    <style>
      .cls-1 {
        fill: #0072b2;
      }
    </style>
  </defs>
  <g id="Capa_1-2" data-name="Capa 1">
    <g>
      <path class="cls-1" d="M64.7,9.29c2.44-1.47,2.73-4.81,1.27-7.07C65.1.88,63.75,0,62.13,0c-1.65,0-3.49,1.28-3.75,2.97-.11.71-.12,1.35.11,1.99-.1.32-.17.66-.19,1.01-.17,3.31,3.87,4.84,6.4,3.32Z"/>
      <path class="cls-1" d="M223.93,15.94c.91-1.34.37-2.94-.53-4.07l-.14-.18c-1.13-1.42-3.57-1.18-4.75,0-.37.37-.62.77-.77,1.19-.07.06-.13.13-.2.19-3.11-2.15-6.85-3.26-10.48-2.87-.71-.09-1.34.04-1.87.32-1.98.51-3.89,1.5-5.6,3.04-.41.38-.8.77-1.16,1.18-.13.09-.27.18-.4.29-2.83,2.56-4.61,5.57-6.19,9.01-.91,1.97-2.31,7.82-4.98,5.48-1.74-1.53-2.36-5.4-3.07-7.54-.91-2.75-1.87-5.44-3.7-7.74-3.75-4.7-9.7-4.35-12.87.77-.2.33-.4.67-.58,1.02-1.86-4.19-4.78-7.07-9.94-5.79-3.57.88-5.91,2.81-7.41,5.3-.05-.4-.11-.81-.15-1.21-.35-3.48-5.79-4.9-6.6-.89-1.13,5.55-2.36,13.09-7.75,15.95-2.39,1.27-5.02.88-7.19-.45,1.58-2.1,3-4.2,4.27-5.77,3.3-4.06,5.22-10.95-.97-13.43-5.21-2.09-10.86.78-13.27,5.52-2.15,4.23-1.47,9.41.86,13.53-.78.88-1.8,1.78-2.83,1.44-.84-.28-1.2-2.94-1.38-3.6-1.85-6.95-3.98-19.89-14.36-14.7-1.8.9-3.24,2.24-4.36,3.84-2.12-3.91-5.16-6.52-9.58-5.08-2.36.76-4.15,2.32-5.49,4.32-.25-1.15-.5-2.31-.77-3.46-.99-4.21-7.47-2.43-6.48,1.79,1.22,5.2,2.26,10.44,3.37,15.66-.6,1.23-1.6,2.41-2.54,2.87-3.67,1.84-6.06-1.62-7.31-4.48-1.38-3.17-2.42-7.02-2.28-10.49.14-3.57-4.49-4.25-6.26-1.7-2.4,3.44-3.97,7.32-5.99,10.97-.65-2.89-1.13-5.36-2.15-8.47-1.31-3.97-3.95-7.65-8.54-7.7-3.15-.03-5.6,1.3-7.52,3.36-1.47-3.05-4.03-5.09-8.39-4.89-3.94.18-6.89,2.21-9.1,5.14-.31-2.48-.94-4.9-2.55-6.51-2.79-2.79-7.28-1.42-9.52.26-2.14,1.6-3.18,2.72-4.31,6.49-1.24,4.15,5.29.19,7.17-.99.31-.2,1.63-1.06,1.98-.82.6.41.62,3.83.68,4.38.68,5.83.94,11.7.85,17.57-.02,4.33,6.66,4.33,6.72,0,.02-3.73.58-7.35,1.8-10.88.95-2.77,2.49-6.81,5.6-7.75,3.55-1.08,4.3,3.63,4.21,8.43-.21,3.87-.59,6.87-.9,9.46-.43,3.55,6.06,4.82,6.6.89.31-2.25.99-10.85,1.18-11.71.94-4.26,3.06-6.89,6.01-5.54,1.96.9,2.55,6.01,2.97,7.77.92,3.83,1.39,6.24,2.38,9.94.38,1.42,1.77,2.47,3.24,2.47.26,0,.5-.02.74-.06.79.03,1.61-.29,2.3-1.12.02-.02.03-.04.05-.06.32-.33.61-.71.87-1.14,1.83-2.43,3.27-5.06,4.65-7.71,1.56,4.81,4.34,9.26,8.47,11.14,3.78,1.72,8,.79,11.19-1.59,2.09,1.79,6.3-.02,5.48-3.48-.7-2.91-1.06-15.37,3.6-14.94,2.27.21,3.71,5.02,4.6,9.27.09,2.05.45,4.03,1.05,5.79,1.41,4.12,7.28,2.46,6.48-1.79-.21-1.1-.47-2.57-.81-4.2-.14-2.34.22-4.76,1.28-6.72,1.49-2.74,3.36-3.13,4.99-.43.94,1.57,1.14,4.3,1.61,6.07,1.5,5.73,3.4,12.3,10.89,10.77,1.8-.37,3.49-1.44,5.07-2.87,4.74,3.43,9.72,3.97,15.02,1.19,3.18-1.66,5.36-4.26,6.94-7.29.69,2.45,1.47,4.88,2.29,7.3,1.14,3.36,7.04,3.09,6.6-.89-.4-3.68-2.7-16.99,3.82-17.39,4.42-.27,5.55,13.94,6.67,17.14,1.16,3.33,7.05,3.11,6.6-.89-.33-2.95-.25-5.99.18-8.93.42-2.83,1.33-8.25,4.55-4.32,3.17,3.87,2.59,10.1,6.08,14.08,2.79,3.19,8.21,4.33,11.45,1.08,1.36-1.36,2.33-2.96,3.17-4.64.91,1.65,2.2,3.15,3.91,4.33,7.46,5.18,18.05,1.21,21.27-7.15,1.02-2.64,1.4-6.04.4-8.84.02-.2.02-.41-.02-.62.12-.08.24-.17.36-.27.61-.51,1.04-1.32,1.48-1.98ZM125.76,16.13c.34-.15,2.14-.53,2.44-.21.86.92-3.66,5.46-4.42,6.39-.18.22-.35.44-.53.66-.14-.62-.22-1.26-.2-1.91.05-1.9.88-4.12,2.7-4.94ZM215.76,24.08c-1,4.67-6.78,8.04-11.07,5.49-3.82-2.28-4.07-7.32-1.14-10.47.99-1.07,2.21-1.73,3.51-2.04.78.17,1.62.36,2.46.59.31,1.9,1.63,3.21,3.6,3.76.83.23,1.68.28,2.51.18.26.71.33,1.53.12,2.5Z"/>
    </g>
  </g>
</svg>