<?xml version="1.0" encoding="UTF-8"?>
<svg id="Capa_2" data-name="Capa 2" xmlns="http://www.w3.org/2000/svg" viewBox="0 0 28.63 23.86">
  <defs>
    <style>
      .cls-1 {
        fill: #e62044;
      }
    </style>
  </defs>
  <g id="Capa_1-2" data-name="Capa 1">
    <path class="cls-1" d="M27.68,21.95h-1.91v-8.59l.28.28c.37.37.98.37,1.35,0,.37-.37.37-.98,0-1.35L15.66.56c-.75-.74-1.95-.74-2.7,0L1.23,12.29c-.37.37-.37.98,0,1.35.37.37.98.37,1.35,0l.28-.28v8.59H.95c-.53,0-.95.43-.95.95s.43.95.95.95h26.72c.53,0,.95-.43.95-.95s-.43-.95-.95-.95ZM4.77,11.45L14.31,1.91l9.54,9.54v10.5h-5.73v-6.68c0-.53-.43-.95-.95-.95h-5.73c-.53,0-.95.43-.95.95v6.68h-5.73v-10.5ZM16.22,21.95h-3.82v-5.73h3.82v5.73Z"/>
  </g>
</svg>