<?xml version="1.0" encoding="UTF-8"?>
<svg id="Capa_2" data-name="Capa 2" xmlns="http://www.w3.org/2000/svg" viewBox="0 0 24.04 24.04">
  <defs>
    <style>
      .cls-1 {
        fill: #e62044;
      }
    </style>
  </defs>
  <g id="Capa_1-2" data-name="Capa 1">
    <path class="cls-1" d="M12.02,0C5.38,0,0,5.38,0,12.02s5.38,12.02,12.02,12.02,12.02-5.38,12.02-12.02C24.03,5.38,18.65,0,12.02,0ZM12.02,22.19c-5.62,0-10.17-4.55-10.17-10.17S6.4,1.85,12.02,1.85s10.17,4.55,10.17,10.17c0,5.61-4.56,10.16-10.17,10.17ZM17.56,12.02c0,.51-.41.92-.92.92h-3.7v3.7c0,.51-.41.92-.92.92s-.92-.41-.92-.92v-3.7h-3.7c-.51,0-.92-.41-.92-.92s.41-.92.92-.92h3.7v-3.7c0-.51.41-.92.92-.92s.92.41.92.92v3.7h3.7c.51,0,.92.41.92.92Z"/>
  </g>
</svg>