<?xml version="1.0" encoding="UTF-8"?>
<svg id="Capa_2" data-name="Capa 2" xmlns="http://www.w3.org/2000/svg" viewBox="0 0 24.84 24.84">
  <defs>
    <style>
      .cls-1 {
        fill: #e62044;
      }
    </style>
  </defs>
  <g id="Capa_1-2" data-name="Capa 1">
    <path class="cls-1" d="M24.56,23.21l-5.97-5.97c3.72-4.46,3.11-11.09-1.35-14.8C12.78-1.28,6.15-.68,2.43,3.78c-3.72,4.46-3.11,11.09,1.35,14.8,3.9,3.25,9.56,3.25,13.45,0l5.97,5.97c.37.37.98.37,1.35,0,.37-.37.37-.98,0-1.35ZM1.94,10.52C1.94,5.78,5.78,1.94,10.52,1.94s8.59,3.85,8.59,8.59-3.85,8.59-8.59,8.59c-4.74,0-8.58-3.85-8.59-8.59Z"/>
  </g>
</svg>