<?xml version="1.0" encoding="UTF-8"?>
<svg id="Capa_2" data-name="Capa 2" xmlns="http://www.w3.org/2000/svg" viewBox="0 0 21.2 24.73">
  <defs>
    <style>
      .cls-1 {
        fill: #e62044;
      }
    </style>
  </defs>
  <g id="Capa_1-2" data-name="Capa 1">
    <path class="cls-1" d="M16.78,15.9c-1.19,0-2.33.48-3.16,1.33l-5.09-3.27c.4-1.03.4-2.17,0-3.19l5.09-3.27c1.7,1.74,4.5,1.78,6.24.08,1.74-1.7,1.78-4.5.08-6.24-1.7-1.74-4.5-1.78-6.24-.08-1.27,1.24-1.67,3.11-1.03,4.76l-5.09,3.27c-1.7-1.75-4.5-1.78-6.24-.08-1.75,1.7-1.78,4.5-.08,6.24,1.7,1.75,4.5,1.78,6.24.08.03-.03.06-.05.08-.08l5.09,3.27c-.88,2.27.25,4.83,2.52,5.71,2.27.88,4.83-.25,5.71-2.52.88-2.27-.25-4.83-2.52-5.71-.51-.2-1.05-.3-1.6-.3ZM16.78,1.77c1.46,0,2.65,1.19,2.65,2.65s-1.19,2.65-2.65,2.65-2.65-1.19-2.65-2.65,1.19-2.65,2.65-2.65ZM4.42,15.01c-1.46,0-2.65-1.19-2.65-2.65s1.19-2.65,2.65-2.65,2.65,1.19,2.65,2.65-1.19,2.65-2.65,2.65ZM16.78,22.96c-1.46,0-2.65-1.19-2.65-2.65s1.19-2.65,2.65-2.65,2.65,1.19,2.65,2.65-1.19,2.65-2.65,2.65Z"/>
  </g>
</svg>